<?xml version="1.0" standalone="no"?>
<!DOCTYPE svg PUBLIC "-//W3C//DTD SVG 20010904//EN"
 "http://www.w3.org/TR/2001/REC-SVG-20010904/DTD/svg10.dtd">
<svg version="1.0" xmlns="http://www.w3.org/2000/svg"
 width="500.000000pt" height="500.000000pt" viewBox="0 0 500.000000 500.000000"
 preserveAspectRatio="xMidYMid meet">

<g transform="translate(0.000000,500.000000) scale(0.100000,-0.100000)"
fill="#000000" stroke="none">
<path d="M3300 4188 c-25 -6 -373 -86 -774 -178 -766 -177 -777 -180 -761
-229 3 -11 13 -21 21 -21 16 0 19 -16 4 -25 -17 -10 -11 -44 9 -55 15 -8 191
30 778 165 417 96 768 177 779 180 l21 5 -17 77 c-10 43 -16 81 -14 85 3 4 4
8 2 7 -2 -1 -23 -6 -48 -11z"/>
<path d="M1625 3690 c-16 -16 -27 -31 -24 -33 9 -7 83 -26 87 -23 6 7 -18 86
-27 86 -4 0 -20 -13 -36 -30z"/>
<path d="M970 3702 c0 -7 106 -40 1230 -377 l515 -154 47 -51 c25 -29 61 -82
79 -118 31 -62 34 -75 34 -162 0 -91 -2 -100 -38 -170 -20 -41 -50 -89 -65
-107 l-28 -32 -641 193 -641 193 -6 -31 -6 -30 -48 47 c-61 61 -91 69 -159 46
l-51 -17 5 32 5 32 -76 22 c-42 13 -88 27 -102 32 l-26 10 35 39 c35 39 62 80
55 86 -2 1 -103 -45 -225 -104 -147 -70 -223 -111 -223 -121 0 -11 67 -34 253
-89 138 -41 268 -81 287 -89 22 -9 89 -71 180 -168 80 -85 175 -182 211 -215
l67 -59 18 28 19 29 235 -67 c371 -106 384 -110 374 -101 -5 5 -133 46 -284
91 -151 46 -279 86 -284 91 -5 4 4 22 20 41 l29 34 285 -82 c310 -88 353 -99
330 -85 -8 5 -147 48 -308 97 -223 67 -289 90 -275 97 30 16 63 49 57 58 -5 9
-30 16 521 -148 231 -69 432 -131 446 -139 62 -32 167 -188 201 -298 32 -106
22 -204 -31 -310 -23 -45 -61 -103 -85 -130 l-43 -49 -924 278 c-760 228
-1136 342 -1291 392 -14 4 -18 0 -18 -20 0 -20 87 -111 416 -436 l416 -411
174 166 c147 140 176 164 191 155 49 -28 49 -27 -8 -89 -142 -158 -204 -341
-170 -505 15 -67 70 -184 103 -214 13 -11 49 -35 81 -53 l59 -33 -32 51 c-60
99 -82 168 -88 282 -3 82 -1 119 13 165 25 87 79 186 139 251 l52 58 130 -78
c71 -43 131 -80 133 -82 3 -3 -20 -30 -51 -62 -170 -174 -204 -373 -97 -583
28 -57 144 -209 158 -209 25 0 838 253 851 265 9 8 25 12 35 9 11 -2 114 25
229 60 174 54 215 70 240 96 l31 30 -45 -14 c-25 -8 -339 -103 -698 -211 -538
-161 -657 -194 -669 -183 -25 21 -93 126 -119 184 -78 176 -35 382 113 541
l58 62 221 65 220 65 65 -20 65 -20 138 81 137 82 627 189 c345 104 646 195
670 201 23 6 42 16 42 24 0 8 -74 49 -170 96 l-170 83 201 120 c212 126 248
157 317 270 125 205 89 459 -93 650 -50 52 -51 53 -207 99 -86 25 -162 46
-168 46 -6 0 -36 -27 -68 -59 -49 -52 -142 -110 -702 -442 -355 -210 -649
-384 -654 -387 -4 -2 11 20 35 49 96 118 134 214 126 322 -6 88 -56 193 -124
259 l-48 46 -315 96 c-173 52 -565 169 -870 261 -305 91 -561 168 -567 170 -7
2 -13 1 -13 -3z"/>
<path d="M730 2396 c-58 -18 -111 -35 -119 -37 -12 -4 133 -99 152 -99 10 0
53 89 65 133 6 20 10 37 9 36 -1 0 -49 -15 -107 -33z"/>
<path d="M1662 2304 c13 -13 513 -164 542 -164 27 0 -24 17 -279 94 -154 47
-271 78 -263 70z"/>
<path d="M1786 2171 c13 -14 320 -104 336 -99 6 2 -63 26 -153 52 -90 27 -171
51 -179 54 -11 4 -12 2 -4 -7z"/>
<path d="M1955 2001 c6 -5 28 -12 50 -15 27 -4 33 -3 20 2 -35 16 -81 24 -70
13z"/>
<path d="M3832 1437 c-116 -30 -191 -55 -189 -61 2 -6 17 -98 33 -204 l28
-192 91 90 91 90 89 -30 c57 -19 92 -27 99 -20 6 6 5 60 -3 152 -17 195 -22
228 -35 227 -6 0 -98 -24 -204 -52z"/>
</g>
</svg>
