<?xml version="1.0" standalone="no"?>
<!DOCTYPE svg PUBLIC "-//W3C//DTD SVG 20010904//EN"
 "http://www.w3.org/TR/2001/REC-SVG-20010904/DTD/svg10.dtd">
<svg version="1.0" xmlns="http://www.w3.org/2000/svg"
 width="292.000000pt" height="292.000000pt" viewBox="0 0 292.000000 292.000000"
 preserveAspectRatio="xMidYMid meet">

<g transform="translate(0.000000,292.000000) scale(0.100000,-0.100000)"
fill="#000000" stroke="none">
<path d="M700 2336 c0 -10 22 -18 73 -26 136 -22 131 -19 140 -81 9 -60 6
-244 -4 -254 -6 -5 -141 22 -201 41 -13 4 -18 0 -18 -15 0 -19 -6 -21 -77 -21
-47 0 -73 -4 -67 -9 5 -5 77 -24 159 -41 83 -18 157 -36 166 -41 25 -13 42
-101 37 -185 -3 -41 -8 -77 -11 -80 -3 -3 -80 17 -172 45 -179 55 -185 56
-185 42 0 -5 41 -22 91 -38 l91 -28 1 -102 c2 -90 5 -105 23 -124 25 -25 28
-25 753 -73 l494 -32 71 36 c39 20 108 52 154 73 54 24 82 42 82 52 0 9 -4 15
-8 13 -5 -2 -68 -30 -141 -62 -110 -50 -134 -57 -142 -45 -13 17 -6 178 9 205
14 27 152 61 286 71 104 8 110 9 130 36 17 24 21 42 20 120 0 101 -11 133 -50
143 -24 6 -25 7 -18 93 7 95 -10 254 -29 270 -28 22 -296 31 -963 31 -590 0
-694 -2 -694 -14z"/>
<path d="M2146 1209 l-98 -70 -643 1 c-647 1 -708 -1 -734 -34 -28 -35 -38
-237 -18 -336 l12 -55 50 -8 c27 -4 349 -7 715 -5 l665 3 118 84 c65 46 121
90 124 97 14 38 -12 28 -107 -39 -86 -61 -106 -72 -112 -58 -8 20 -8 199 0
268 l7 52 103 71 c56 39 102 77 102 85 0 11 -12 15 -42 15 -37 0 -57 -11 -142
-71z"/>
<path d="M2125 595 c-55 -41 -103 -74 -107 -74 -5 -1 -8 11 -8 27 0 15 -3 37
-6 50 l-6 22 -634 0 -634 0 0 -22 c1 -39 21 -112 33 -120 7 -4 288 -8 626 -8
l613 0 97 67 c112 77 141 102 141 120 0 21 -9 16 -115 -62z"/>
</g>
</svg>
