<?xml version="1.0" standalone="no"?>
<!DOCTYPE svg PUBLIC "-//W3C//DTD SVG 20010904//EN"
 "http://www.w3.org/TR/2001/REC-SVG-20010904/DTD/svg10.dtd">
<svg version="1.0" xmlns="http://www.w3.org/2000/svg"
 width="512.000000pt" height="512.000000pt" viewBox="0 0 512.000000 512.000000"
 preserveAspectRatio="xMidYMid meet">

<g transform="translate(0.000000,512.000000) scale(0.100000,-0.100000)"
fill="#000000" stroke="none">
<path d="M2240 4899 c-69 -14 -146 -56 -188 -104 -29 -33 -106 -188 -296 -594
-142 -302 -268 -558 -279 -569 -12 -11 -32 -25 -45 -31 -13 -7 -284 -52 -603
-101 -391 -60 -594 -96 -624 -109 -63 -28 -140 -104 -172 -170 -24 -49 -28
-68 -28 -146 1 -146 -5 -139 480 -636 231 -237 430 -449 443 -472 12 -22 22
-57 22 -78 0 -20 -43 -302 -96 -626 -67 -416 -94 -606 -92 -648 5 -77 43 -161
98 -214 76 -73 116 -86 449 -141 338 -56 364 -56 466 -4 46 24 777 428 836
462 25 14 35 10 365 -173 186 -104 362 -199 389 -211 34 -16 144 -39 351 -73
261 -44 309 -50 354 -41 116 22 205 87 255 185 49 98 47 122 -59 775 -53 322
-96 602 -96 622 0 77 -25 48 568 657 374 384 377 388 377 531 0 76 -4 93 -33
152 -39 80 -102 139 -176 166 -52 20 -432 86 -942 166 -154 24 -291 50 -303
57 -12 8 -30 28 -41 44 -10 17 -116 239 -235 495 -282 603 -279 598 -328 648
-74 75 -113 88 -442 143 -317 52 -307 51 -375 38z m138 -183 c15 -8 37 -25 49
-38 13 -13 138 -269 278 -568 228 -487 260 -549 302 -592 85 -86 88 -87 708
-183 308 -47 578 -91 599 -97 104 -26 156 -162 98 -250 -10 -14 -206 -219
-437 -457 -233 -239 -432 -452 -447 -477 -38 -67 -52 -152 -38 -239 6 -38 52
-320 101 -625 98 -605 98 -594 43 -659 -32 -38 -102 -65 -149 -58 -19 3 -250
125 -513 270 -262 146 -497 275 -522 287 -55 29 -187 39 -245 20 -21 -7 -265
-138 -542 -292 -276 -153 -515 -281 -531 -284 -76 -15 -183 54 -197 128 -5 26
22 216 90 635 112 688 113 706 54 811 -25 46 -138 168 -454 492 -245 252 -427
447 -437 468 -10 20 -17 51 -18 67 0 45 34 109 73 139 34 26 69 32 619 117
508 78 591 93 643 118 110 51 120 68 397 661 138 294 259 547 269 561 38 54
145 77 207 45z"/>
</g>
</svg>
