<?xml version="1.0" standalone="no"?>
<!DOCTYPE svg PUBLIC "-//W3C//DTD SVG 20010904//EN"
 "http://www.w3.org/TR/2001/REC-SVG-20010904/DTD/svg10.dtd">
<svg version="1.0" xmlns="http://www.w3.org/2000/svg"
 width="696.000000pt" height="392.000000pt" viewBox="0 0 696.000000 392.000000"
 preserveAspectRatio="xMidYMid meet">

<g transform="translate(0.000000,392.000000) scale(0.100000,-0.100000)"
fill="#000000" stroke="none">
<path d="M5432 3455 c-83 -36 -145 -116 -158 -201 -14 -93 45 -202 131 -244
25 -12 45 -27 45 -32 0 -6 -9 -63 -19 -127 -11 -64 -25 -153 -32 -198 -9 -68
-14 -83 -29 -83 -9 0 -29 -9 -44 -21 l-26 -20 -152 41 c-84 23 -157 46 -162
50 -5 5 -23 47 -41 93 -17 46 -52 118 -78 159 -40 65 -47 83 -47 128 0 44 -4
56 -29 81 -24 24 -38 29 -76 29 -39 0 -56 7 -109 45 -89 63 -215 121 -331 151
-91 23 -113 25 -250 21 -136 -4 -159 -7 -250 -37 -119 -39 -176 -66 -272 -131
l-72 -49 -1136 0 c-996 0 -1140 -2 -1165 -15 -63 -33 -60 22 -60 -1055 l0
-980 -50 0 c-67 0 -122 -29 -144 -74 -20 -43 -21 -128 -1 -166 33 -65 -124
-60 2070 -60 2194 0 2037 -5 2070 60 19 37 20 142 0 179 -19 38 -71 61 -139
61 l-56 0 0 290 c0 185 4 290 10 290 5 0 214 -106 465 -235 250 -130 468 -238
484 -241 17 -4 42 1 64 11 30 14 47 38 126 190 99 189 109 229 71 278 -12 15
-176 105 -422 232 -497 256 -558 288 -558 296 0 4 55 59 123 122 92 87 127
113 138 106 24 -15 85 -10 110 9 24 19 25 18 139 -26 63 -25 117 -46 118 -48
2 -1 -2 -20 -9 -41 -17 -54 -15 -139 5 -201 26 -76 82 -141 157 -182 60 -33
70 -35 154 -35 78 0 97 4 146 28 146 71 218 231 175 390 -31 113 -115 198
-230 232 -62 19 -100 19 -159 1 l-46 -14 -126 239 c-69 131 -125 243 -125 247
0 5 18 23 39 40 138 111 103 348 -61 416 -46 20 -132 20 -176 1z m-1174 -344
c350 -101 590 -434 568 -791 -7 -124 -26 -194 -83 -310 -39 -80 -60 -108 -137
-185 -134 -132 -243 -191 -417 -221 -410 -71 -812 192 -905 593 -20 87 -20
248 0 335 68 295 303 526 601 592 96 21 274 15 373 -13z m1467 -363 l127 -242
-23 -19 c-47 -36 -54 -43 -90 -85 l-36 -43 -122 48 c-112 45 -121 50 -121 75
0 14 -11 40 -25 56 l-25 29 32 206 32 206 41 4 c22 2 50 4 61 5 18 2 41 -35
149 -240z m-2495 137 c0 -2 -20 -42 -43 -89 -24 -46 -54 -120 -67 -163 l-22
-78 -235 -164 -235 -164 -28 16 c-35 21 -69 22 -98 2 -20 -15 -27 -13 -119 41
-133 77 -124 66 -101 127 29 76 27 181 -5 251 -73 158 -232 229 -393 176 -57
-19 -79 -34 -130 -84 -49 -50 -64 -73 -82 -129 -26 -80 -27 -115 -6 -187 42
-143 162 -233 310 -233 l72 0 86 -254 c48 -139 84 -258 81 -263 -3 -6 -12 -10
-18 -10 -26 0 -87 -63 -113 -117 -69 -140 7 -300 157 -332 182 -39 331 129
277 313 -8 27 -31 60 -68 96 l-56 56 61 189 c60 188 61 189 93 196 17 3 38 12
46 18 10 9 65 -12 247 -93 393 -174 381 -168 411 -214 41 -61 142 -166 212
-218 79 -61 240 -138 341 -166 119 -32 356 -32 475 0 86 23 228 85 280 122 15
11 31 20 34 20 3 0 6 -79 6 -175 l0 -175 -1650 0 -1650 0 0 845 0 845 965 0
c531 0 965 -2 965 -5z m1913 -342 c120 -32 137 -39 137 -57 0 -17 -22 -30
-128 -74 -70 -29 -130 -52 -133 -52 -3 0 -9 39 -12 88 -4 48 -9 97 -13 110 -3
12 -2 22 2 22 5 0 71 -16 147 -37z m-2061 -140 c-3 -94 -7 -113 -20 -113 -8 0
-107 -23 -219 -51 -112 -29 -206 -49 -210 -45 -3 3 -4 8 -2 9 24 20 452 317
454 315 1 -2 -1 -54 -3 -115z m2208 28 c0 -4 -58 -63 -129 -130 -151 -141
-163 -145 -154 -43 3 37 7 69 9 71 6 7 249 109 262 110 6 1 12 -3 12 -8z
m-2957 -148 c131 -75 134 -77 129 -115 -2 -23 2 -39 12 -47 9 -8 16 -23 16
-35 0 -11 -26 -102 -58 -201 l-58 -180 -62 0 c-60 0 -62 1 -73 30 -29 82 -159
469 -159 476 0 5 19 17 43 27 23 11 58 35 77 55 19 19 39 35 43 36 4 0 45 -20
90 -46z m759 -100 c13 -72 51 -189 92 -285 5 -11 -46 8 -161 59 -376 167 -394
175 -391 191 2 12 59 30 208 68 113 29 212 53 221 53 12 1 19 -19 31 -86z"/>
<path d="M4023 2941 c-76 -35 -98 -125 -44 -179 94 -93 248 -5 207 118 -22 65
-94 92 -163 61z"/>
<path d="M4045 2573 c-174 -30 -175 -30 -175 -52 0 -12 14 -24 45 -36 25 -9
50 -25 55 -35 15 -29 13 -465 -2 -478 -7 -5 -32 -16 -55 -23 -35 -10 -43 -17
-43 -36 l0 -23 206 0 205 0 -3 26 c-2 21 -12 30 -48 43 l-45 17 -5 310 -5 310
-130 -23z"/>
</g>
</svg>
