<?xml version="1.0" standalone="no"?>
<!DOCTYPE svg PUBLIC "-//W3C//DTD SVG 20010904//EN"
 "http://www.w3.org/TR/2001/REC-SVG-20010904/DTD/svg10.dtd">
<svg version="1.0" xmlns="http://www.w3.org/2000/svg"
 width="885.000000pt" height="720.000000pt" viewBox="0 0 885.000000 720.000000"
 preserveAspectRatio="xMidYMid meet">

<g transform="translate(0.000000,720.000000) scale(0.100000,-0.100000)"
fill="#000000" stroke="none">
<path d="M4960 7145 c-1118 -70 -1349 -84 -2515 -155 -545 -33 -1033 -67
-1085 -75 -323 -49 -623 -207 -875 -460 -221 -223 -387 -531 -439 -815 -14
-76 -49 -411 -43 -416 1 -1 485 28 1074 64 590 36 1076 62 1080 58 4 -3 -71
-925 -166 -2047 -170 -2013 -184 -2200 -162 -2329 43 -257 153 -474 323 -642
176 -174 393 -277 661 -315 111 -16 136 -16 395 0 152 10 900 56 1662 102 762
47 1531 94 1710 105 179 11 440 27 580 35 289 18 406 33 535 70 397 115 765
415 972 793 84 152 153 363 178 544 l6 47 -53 -5 c-44 -4 -660 -42 -1900 -117
l-208 -12 0 31 c0 27 64 788 336 3999 34 392 36 440 26 545 -28 286 -130 514
-317 705 -181 185 -390 290 -661 330 -137 20 -150 20 -1114 -40z m1137 -244
c165 -41 288 -107 406 -220 44 -42 96 -101 117 -131 97 -143 156 -313 166
-485 5 -69 -37 -596 -181 -2295 -103 -1213 -189 -2207 -190 -2208 -2 -2 -471
-32 -1042 -67 -571 -35 -1056 -65 -1077 -67 l-40 -3 -17 -97 c-87 -493 -474
-903 -968 -1025 -146 -37 -360 -38 -495 -5 -322 80 -568 318 -655 632 -44 159
-45 229 -6 686 19 231 105 1242 191 2249 168 1972 166 1944 124 2115 -27 109
-105 267 -173 350 -150 184 -377 302 -633 329 -43 5 -69 9 -56 10 79 4 2583
158 3057 187 319 19 706 44 860 54 328 22 495 19 612 -9z"/>
<path d="M6360 6029 c-231 -16 -3067 -189 -3097 -189 -27 0 -32 -4 -38 -36 -3
-20 -4 -39 -1 -42 4 -3 356 16 784 42 427 26 1168 72 1645 101 478 29 870 55
871 57 2 1 6 20 9 41 5 35 4 37 -21 36 -15 -1 -83 -6 -152 -10z"/>
<path d="M2848 5946 l-167 -9 -5 -26 c-9 -46 -28 -312 -23 -317 5 -6 329 14
335 21 5 4 33 327 30 335 -2 3 -78 1 -170 -4z m117 -160 c-5 -69 -13 -127 -16
-131 -5 -5 -251 -26 -256 -22 -1 1 4 61 10 132 l12 130 75 6 c41 3 100 6 130
7 l55 2 -10 -124z"/>
<path d="M6030 5014 c-594 -38 -2825 -174 -2859 -174 -30 0 -31 -2 -31 -40 0
-38 2 -40 29 -40 39 0 3115 187 3209 195 l72 7 0 39 c0 36 -2 39 -27 38 -16
-1 -192 -12 -393 -25z"/>
<path d="M2760 4945 c-133 -8 -165 -13 -167 -25 -6 -34 -30 -325 -28 -328 3
-4 338 18 341 21 5 7 29 339 24 340 -3 2 -79 -2 -170 -8z m126 -107 c-4 -40
-9 -99 -13 -130 l-5 -57 -77 -5 c-42 -4 -100 -8 -130 -11 l-53 -4 6 82 c4 45
9 105 12 134 l6 52 77 4 c42 1 100 4 130 5 l54 2 -7 -72z"/>
<path d="M6015 4019 c-358 -23 -991 -62 -2100 -130 -467 -28 -851 -52 -851
-53 -1 0 -5 -19 -8 -40 l-7 -39 118 7 c1042 62 3185 195 3187 198 2 2 6 20 9
41 6 36 5 37 -26 36 -18 -1 -162 -10 -322 -20z"/>
<path d="M2673 3947 l-163 -10 -4 -31 c-9 -57 -28 -308 -23 -312 5 -5 330 15
335 21 4 4 31 282 32 323 0 12 -3 21 -7 20 -5 -1 -81 -6 -170 -11z m134 -50
c-3 -8 -8 -64 -12 -126 -5 -75 -12 -114 -20 -117 -21 -8 -240 -21 -246 -15 -3
3 -1 62 5 131 l11 125 70 6 c140 11 198 10 192 -4z"/>
<path d="M4635 2939 c-869 -54 -1599 -98 -1622 -98 l-43 -1 0 -40 c0 -34 3
-40 21 -40 32 0 3121 188 3212 196 l77 6 0 39 c0 38 -1 39 -32 38 -18 -1 -744
-46 -1613 -100z"/>
<path d="M2585 2946 c-128 -9 -160 -14 -163 -26 -4 -25 -29 -325 -27 -328 2
-2 339 18 341 21 1 1 7 67 13 147 7 80 13 156 14 169 1 13 -2 25 -8 26 -5 1
-82 -3 -170 -9z m131 -113 c-4 -43 -9 -101 -12 -130 l-6 -51 -87 -6 c-47 -4
-106 -8 -130 -10 l-43 -4 6 82 c4 44 9 104 12 133 l6 52 67 4 c36 2 95 4 130
5 l63 2 -6 -77z"/>
<path d="M4545 1939 c-869 -54 -1596 -98 -1616 -98 -34 -1 -37 -3 -42 -38 -4
-20 -5 -39 -2 -41 2 -2 383 19 847 48 2161 132 2451 150 2453 152 1 2 5 20 9
41 l7 37 -38 -1 c-21 -1 -749 -46 -1618 -100z"/>
<path d="M2500 1947 c-85 -5 -157 -10 -159 -12 -5 -6 -33 -336 -28 -341 5 -5
330 16 336 22 4 4 30 276 31 322 0 12 -6 21 -12 20 -7 0 -83 -5 -168 -11z
m136 -54 c-3 -10 -8 -68 -12 -129 l-6 -112 -82 -6 c-44 -3 -103 -7 -131 -8
l-50 -2 3 54 c2 30 7 89 10 130 l7 75 65 6 c36 3 96 6 133 7 61 2 68 0 63 -15z"/>
</g>
</svg>
