<?xml version="1.0" standalone="no"?>
<!DOCTYPE svg PUBLIC "-//W3C//DTD SVG 20010904//EN"
 "http://www.w3.org/TR/2001/REC-SVG-20010904/DTD/svg10.dtd">
<svg version="1.0" xmlns="http://www.w3.org/2000/svg"
 width="920.000000pt" height="593.000000pt" viewBox="0 0 920.000000 593.000000"
 preserveAspectRatio="xMidYMid meet">

<g transform="translate(0.000000,593.000000) scale(0.100000,-0.100000)"
fill="#000000" stroke="none">
<path d="M3145 5919 c-649 -42 -1226 -191 -1745 -451 -476 -238 -849 -551
-1095 -918 -201 -300 -309 -678 -290 -1009 25 -450 210 -835 575 -1202 151
-153 278 -256 455 -373 66 -44 122 -81 123 -82 2 -1 -13 -31 -33 -66 -166
-283 -485 -616 -970 -1010 -146 -119 -182 -161 -155 -178 59 -38 413 32 794
157 388 127 862 337 1310 581 l140 76 135 -28 c630 -132 1229 -150 1846 -55
720 110 1382 382 1870 768 103 81 307 283 390 386 370 459 496 989 360 1508
-87 331 -269 623 -567 913 -402 390 -981 690 -1648 853 -471 115 -1008 162
-1495 130z"/>
<path d="M7266 3422 c-3 -15 -10 -63 -16 -107 -61 -441 -294 -878 -665 -1251
-252 -253 -537 -454 -895 -634 -186 -93 -300 -141 -527 -219 l-193 -67 58 -56
c249 -243 669 -449 1117 -548 488 -107 1003 -99 1505 26 l145 36 130 -79 c428
-262 884 -459 1163 -503 162 -26 151 10 -58 183 -288 237 -463 456 -513 638
-31 112 -35 99 54 169 162 128 317 315 402 485 334 674 -78 1411 -994 1776
-180 71 -468 146 -666 173 -39 6 -42 4 -47 -22z"/>
</g>
</svg>
